<svg xmlns="http://www.w3.org/2000/svg" width="900" height="600" viewBox="0 0 900 600"><defs><linearGradient id="s" x2="0" y2="1"><stop stop-color="#e7f7ef"/><stop offset="1" stop-color="#c9ecdc"/></linearGradient><linearGradient id="m" x2="0" y2="1"><stop stop-color="#bde3b0"/><stop offset="1" stop-color="#8fc990"/></linearGradient></defs><rect width="900" height="600" fill="url(#s)"/><circle cx="744" cy="91" r="48" fill="#fff6b0" opacity=".9"/><path d="M0 267Q100 186 215 272T430 250T648 243T900 260V600H0Z" fill="#a4d69e" opacity=".72"/><path d="M0 323Q125 238 261 337T520 306T710 322T900 294V600H0Z" fill="url(#m)"/><g fill="#fff" opacity=".9"><ellipse cx="118" cy="105" rx="52" ry="16"/><ellipse cx="156" cy="104" rx="38" ry="13"/><ellipse cx="440" cy="142" rx="60" ry="18"/><ellipse cx="484" cy="141" rx="34" ry="12"/></g><g stroke="#77b578" stroke-width="5" stroke-linecap="round" opacity=".55"><path d="M58 501l-5 27m5-18l12-14M177 447l2 31m-2-18l-13-13M760 478l3 27m-3-14l-15-12M847 407l-3 28m3-13l12-14"/></g></svg>
